<svg width="15" height="15" viewBox="0 0 15 15" fill="none" xmlns="http://www.w3.org/2000/svg">
<g clip-path="url(#clip0_606_718)">
<path d="M11.5952 3.32753H10.5548V1.94043H9.51452V3.32753H6.04676V1.94043H5.00643V3.32753H3.96611C3.39046 3.32753 2.92578 3.79915 2.92578 4.36786V11.9969C2.92578 12.5656 3.39046 13.0373 3.96611 13.0373H11.5952C12.1708 13.0373 12.6355 12.5656 12.6355 11.9969V4.36786C12.6355 3.79915 12.1708 3.32753 11.5952 3.32753ZM11.5952 11.9969H3.96611V6.79529H11.5952V11.9969ZM11.5952 5.75496H3.96611V4.36786H11.5952V5.75496ZM6.04676 8.87594H5.00643V7.83562H6.04676V8.87594ZM8.3008 8.87594H7.26048V7.83562H8.3008V8.87594ZM10.5548 8.87594H9.51452V7.83562H10.5548V8.87594ZM6.04676 10.9566H5.00643V9.91627H6.04676V10.9566ZM8.3008 10.9566H7.26048V9.91627H8.3008V10.9566ZM10.5548 10.9566H9.51452V9.91627H10.5548V10.9566Z" fill="white"/>
</g>
<defs>
<clipPath id="clip0_606_718">
<rect width="13.871" height="13.871" fill="white" transform="translate(0.845703 0.553955)"/>
</clipPath>
</defs>
</svg>
