<svg width="11" height="11" viewBox="0 0 11 11" fill="none" xmlns="http://www.w3.org/2000/svg">
<g clip-path="url(#clip0_606_727)">
<path d="M3.15502 3.95536V3.09953C3.15502 2.53208 3.38044 1.98787 3.78168 1.58663C4.18293 1.18538 4.72714 0.959961 5.29459 0.959961C5.86204 0.959961 6.40625 1.18538 6.80749 1.58663C7.20874 1.98787 7.43416 2.53208 7.43416 3.09953V3.95536H8.7179C8.83139 3.95536 8.94024 4.00045 9.02049 4.08069C9.10073 4.16094 9.14582 4.26979 9.14582 4.38328V9.51825C9.14582 9.63174 9.10073 9.74058 9.02049 9.82083C8.94024 9.90108 8.83139 9.94616 8.7179 9.94616H1.87127C1.75778 9.94616 1.64894 9.90108 1.56869 9.82083C1.48844 9.74058 1.44336 9.63174 1.44336 9.51825V4.38328C1.44336 4.26979 1.48844 4.16094 1.56869 4.08069C1.64894 4.00045 1.75778 3.95536 1.87127 3.95536H3.15502ZM3.15502 4.81119H2.29919V9.09033H8.28999V4.81119H7.43416V5.66702H6.57833V4.81119H4.01085V5.66702H3.15502V4.81119ZM4.01085 3.95536H6.57833V3.09953C6.57833 2.75906 6.44308 2.43254 6.20233 2.19179C5.96158 1.95104 5.63506 1.81579 5.29459 1.81579C4.95412 1.81579 4.62759 1.95104 4.38685 2.19179C4.1461 2.43254 4.01085 2.75906 4.01085 3.09953V3.95536Z" fill="white"/>
</g>
<defs>
<clipPath id="clip0_606_727">
<rect width="10.2699" height="10.2699" fill="white" transform="translate(0.160156 0.532227)"/>
</clipPath>
</defs>
</svg>
