<svg width="17" height="17" viewBox="0 0 17 17" fill="none" xmlns="http://www.w3.org/2000/svg">
<g clip-path="url(#clip0_606_710)">
<path d="M14.3802 2.38867C14.559 2.38867 14.7306 2.45973 14.857 2.5862C14.9835 2.71268 15.0546 2.88422 15.0546 3.06308V6.77232C14.6074 6.77232 14.1786 6.94996 13.8624 7.26615C13.5462 7.58234 13.3685 8.01118 13.3685 8.45834C13.3685 8.90551 13.5462 9.33435 13.8624 9.65054C14.1786 9.96673 14.6074 10.1444 15.0546 10.1444V13.8536C15.0546 14.0325 14.9835 14.204 14.857 14.3305C14.7306 14.457 14.559 14.528 14.3802 14.528H2.24081C2.06195 14.528 1.89041 14.457 1.76394 14.3305C1.63746 14.204 1.56641 14.0325 1.56641 13.8536V10.1444C2.01357 10.1444 2.44241 9.96673 2.7586 9.65054C3.07479 9.33435 3.25243 8.90551 3.25243 8.45834C3.25243 8.01118 3.07479 7.58234 2.7586 7.26615C2.44241 6.94996 2.01357 6.77232 1.56641 6.77232V3.06308C1.56641 2.88422 1.63746 2.71268 1.76394 2.5862C1.89041 2.45973 2.06195 2.38867 2.24081 2.38867H14.3802ZM13.7058 3.73749H2.91522V5.73913L3.02043 5.79376C3.47789 6.04332 3.86339 6.40647 4.13979 6.84824C4.41619 7.29001 4.57418 7.79551 4.59854 8.31604L4.60124 8.45834C4.60133 9.00343 4.45457 9.53847 4.1764 10.0072C3.89823 10.476 3.49891 10.8612 3.02043 11.1223L2.91522 11.1776V13.1792H13.7058V11.1769L13.6005 11.1229C13.1431 10.8734 12.7576 10.5102 12.4812 10.0684C12.2048 9.62668 12.0468 9.12119 12.0224 8.60065L12.0197 8.45834C12.0197 7.30915 12.6584 6.30901 13.6005 5.79443L13.7058 5.73846V3.73749Z" fill="#5B4FC7"/>
</g>
<defs>
<clipPath id="clip0_606_710">
<rect width="16.1858" height="16.1858" fill="white" transform="translate(0.216797 0.365479)"/>
</clipPath>
</defs>
</svg>
