<svg width="55" height="55" viewBox="0 0 55 55" fill="none" xmlns="http://www.w3.org/2000/svg">
<path d="M43.5417 9.62402H11.4583C8.91458 9.62402 6.875 11.649 6.875 14.124V41.124C6.875 43.599 8.91458 45.624 11.4583 45.624H43.5417C46.0625 45.624 48.125 43.599 48.125 41.124V14.124C48.125 11.649 46.0625 9.62402 43.5417 9.62402ZM43.5417 41.124H11.4583V14.124H43.5417V41.124ZM17.1875 29.874H21.7708V34.374H25.2083V20.874H21.7708V26.499H17.1875V20.874H13.75V34.374H17.1875V29.874ZM32.0833 34.374H33.8021V37.749H37.2396V34.374H38.9583C40.2188 34.374 41.25 33.3615 41.25 32.124V23.124C41.25 21.8865 40.2188 20.874 38.9583 20.874H32.0833C30.8229 20.874 29.7917 21.8865 29.7917 23.124V32.124C29.7917 33.3615 30.8229 34.374 32.0833 34.374ZM33.2292 24.249H37.8125V30.999H33.2292V24.249Z" fill="white"/>
</svg>
