<svg width="48" height="27" viewBox="0 0 48 27" fill="none" xmlns="http://www.w3.org/2000/svg">
<path d="M1.66602 5.74377C1.66602 4.55913 2.13661 3.42302 2.97427 2.58536C3.81193 1.74769 4.94805 1.2771 6.13268 1.2771H41.866C43.0506 1.2771 44.1868 1.74769 45.0244 2.58536C45.8621 3.42302 46.3327 4.55913 46.3327 5.74377V21.3771C46.3327 22.5617 45.8621 23.6978 45.0244 24.5355C44.1868 25.3732 43.0506 25.8438 41.866 25.8438H33.2275C32.4561 25.8438 31.698 25.644 31.0267 25.264C30.3555 24.884 29.7942 24.3366 29.3973 23.6752L25.9133 17.8685C25.7148 17.5383 25.4342 17.2651 25.0988 17.0754C24.7634 16.8858 24.3846 16.7861 23.9993 16.7861C23.614 16.7861 23.2353 16.8858 22.8999 17.0754C22.5645 17.2651 22.2839 17.5383 22.0854 17.8685L18.6014 23.6752C18.2045 24.3366 17.6432 24.884 16.9719 25.264C16.3007 25.644 15.5425 25.8438 14.7712 25.8438H6.13268C4.94805 25.8438 3.81193 25.3732 2.97427 24.5355C2.13661 23.6978 1.66602 22.5617 1.66602 21.3771V5.74377Z" stroke="white" stroke-width="2" stroke-linecap="round" stroke-linejoin="round"/>
</svg>
