<svg width="48" height="34" viewBox="0 0 48 34" fill="none" xmlns="http://www.w3.org/2000/svg">
<path d="M1.66602 12.7438C1.66602 11.5591 2.13661 10.423 2.97427 9.58536C3.81193 8.74769 4.94805 8.2771 6.13268 8.2771H41.866C43.0506 8.2771 44.1868 8.74769 45.0244 9.58536C45.8621 10.423 46.3327 11.5591 46.3327 12.7438V28.3771C46.3327 29.5617 45.8621 30.6978 45.0244 31.5355C44.1868 32.3732 43.0506 32.8438 41.866 32.8438H33.2275C32.4561 32.8438 31.698 32.644 31.0267 32.264C30.3555 31.884 29.7942 31.3366 29.3973 30.6752L25.9133 24.8685C25.7148 24.5383 25.4342 24.2651 25.0988 24.0754C24.7634 23.8858 24.3846 23.7861 23.9993 23.7861C23.614 23.7861 23.2353 23.8858 22.8999 24.0754C22.5645 24.2651 22.2839 24.5383 22.0854 24.8685L18.6014 30.6752C18.2045 31.3366 17.6432 31.884 16.9719 32.264C16.3007 32.644 15.5425 32.8438 14.7712 32.8438H6.13268C4.94805 32.8438 3.81193 32.3732 2.97427 31.5355C2.13661 30.6978 1.66602 29.5617 1.66602 28.3771V12.7438Z" stroke="white" stroke-width="2" stroke-linecap="round" stroke-linejoin="round"/>
<path d="M5.71609 5.55472C6.53167 4.3315 7.63654 3.32848 8.93269 2.63462C10.2288 1.94077 11.6762 1.57754 13.1464 1.57715H34.8499C36.3205 1.57717 37.7683 1.94023 39.0649 2.6341C40.3614 3.32797 41.4667 4.33118 42.2825 5.55472L44.1004 8.27715H3.90039L5.71609 5.55472Z" stroke="white" stroke-width="2" stroke-linecap="round" stroke-linejoin="round"/>
</svg>
