<svg width="34" height="34" viewBox="0 0 34 34" fill="none" xmlns="http://www.w3.org/2000/svg">
<path d="M28.7181 16.5802L16.343 4.20521C15.848 3.71021 15.1605 3.40771 14.4043 3.40771H4.7793C3.2668 3.40771 2.0293 4.64521 2.0293 6.15771V15.7827C2.0293 16.539 2.3318 17.2265 2.84055 17.7352L15.2155 30.1102C15.7105 30.6052 16.398 30.9077 17.1543 30.9077C17.9106 30.9077 18.598 30.6052 19.0931 30.0965L28.7181 20.4715C29.2268 19.9765 29.5293 19.289 29.5293 18.5327C29.5293 17.7765 29.2131 17.0752 28.7181 16.5802ZM17.1543 28.1715L4.7793 15.7827V6.15771H14.4043V6.14396L26.7793 18.519L17.1543 28.1715Z" fill="white"/>
<path d="M9.21875 11.3076C10.3578 11.3076 11.2812 10.3842 11.2812 9.24512C11.2812 8.10603 10.3578 7.18262 9.21875 7.18262C8.07966 7.18262 7.15625 8.10603 7.15625 9.24512C7.15625 10.3842 8.07966 11.3076 9.21875 11.3076Z" fill="white"/>
</svg>
