<svg width="14" height="14" viewBox="0 0 14 14" fill="none" xmlns="http://www.w3.org/2000/svg">
<path d="M7.15071 11.6993L9.75153 9.1402C10.2659 8.63408 10.6161 7.98925 10.758 7.28726C10.8999 6.58528 10.827 5.85766 10.5486 5.19641C10.2703 4.53516 9.79884 3.96999 9.19402 3.57236C8.5892 3.17473 7.87812 2.96249 7.15071 2.96249C6.42331 2.96249 5.71223 3.17473 5.10741 3.57236C4.50259 3.96999 4.03118 4.53516 3.75279 5.19641C3.47441 5.85766 3.40155 6.58528 3.54343 7.28726C3.68532 7.98925 4.03557 8.63408 4.5499 9.1402L7.15071 11.6993ZM7.15071 13.1613L3.80696 9.87122C3.14563 9.2205 2.69527 8.39144 2.51281 7.48888C2.33036 6.58631 2.42401 5.65077 2.78192 4.80058C3.13983 3.95038 3.74592 3.22371 4.52356 2.71244C5.3012 2.20118 6.21546 1.9283 7.15071 1.9283C8.08597 1.9283 9.00023 2.20118 9.77787 2.71244C10.5555 3.22371 11.1616 3.95038 11.5195 4.80058C11.8774 5.65077 11.9711 6.58631 11.7886 7.48888C11.6062 8.39144 11.1558 9.2205 10.4945 9.87122L7.15071 13.1613ZM7.15071 7.6151C7.42941 7.6151 7.6967 7.50616 7.89377 7.31225C8.09084 7.11835 8.20155 6.85535 8.20155 6.58113C8.20155 6.3069 8.09084 6.04391 7.89377 5.85C7.6967 5.65609 7.42941 5.54716 7.15071 5.54716C6.87202 5.54716 6.60473 5.65609 6.40766 5.85C6.21059 6.04391 6.09988 6.3069 6.09988 6.58113C6.09988 6.85535 6.21059 7.11835 6.40766 7.31225C6.60473 7.50616 6.87202 7.6151 7.15071 7.6151ZM7.15071 8.64907C6.59332 8.64907 6.05875 8.4312 5.66461 8.04338C5.27047 7.65557 5.04904 7.12958 5.04904 6.58113C5.04904 6.03267 5.27047 5.50669 5.66461 5.11887C6.05875 4.73106 6.59332 4.51319 7.15071 4.51319C7.70811 4.51319 8.24268 4.73106 8.63682 5.11887C9.03096 5.50669 9.25239 6.03267 9.25239 6.58113C9.25239 7.12958 9.03096 7.65557 8.63682 8.04338C8.24268 8.4312 7.70811 8.64907 7.15071 8.64907Z" fill="white"/>
</svg>
