<svg width="41" height="42" viewBox="0 0 41 42" fill="none" xmlns="http://www.w3.org/2000/svg">
<path d="M15.3757 23.1488C19.1511 23.1488 22.209 20.0909 22.209 16.3155C22.209 12.5401 19.1511 9.48218 15.3757 9.48218C11.6002 9.48218 8.54232 12.5401 8.54232 16.3155C8.54232 20.0909 11.6002 23.1488 15.3757 23.1488ZM15.3757 12.8988C17.2548 12.8988 18.7923 14.4363 18.7923 16.3155C18.7923 18.1947 17.2548 19.7322 15.3757 19.7322C13.4965 19.7322 11.959 18.1947 11.959 16.3155C11.959 14.4363 13.4965 12.8988 15.3757 12.8988ZM15.3757 26.5655C10.8144 26.5655 1.70898 28.8547 1.70898 33.3988V36.8155H29.0423V33.3988C29.0423 28.8547 19.9369 26.5655 15.3757 26.5655ZM5.12565 33.3988C5.50148 32.1688 10.7802 29.9822 15.3757 29.9822C19.9882 29.9822 25.284 32.1859 25.6257 33.3988H5.12565ZM25.7623 12.9843C27.1973 15.0001 27.1973 17.6138 25.7623 19.6297L28.6323 22.5168C32.0832 19.0659 32.0832 13.8555 28.6323 10.0972L25.7623 12.9843ZM34.2869 4.35718L31.5023 7.14176C36.2344 12.3009 36.2344 20.0568 31.5023 25.4893L34.2869 28.2738C40.9494 21.6284 40.9665 11.2759 34.2869 4.35718Z" fill="white"/>
</svg>
