<svg width="82" height="99" viewBox="0 0 82 99" fill="none" xmlns="http://www.w3.org/2000/svg">
<path opacity="0.3" fill-rule="evenodd" clip-rule="evenodd" d="M131.75 -32.7844C147.379 -27.6457 152.299 -5.89698 152.74 10.6105C153.127 25.0846 139.751 35.3865 133.925 48.6715C129.259 59.3111 129.221 71.3722 122.076 80.5351C113.372 91.6976 103.052 102.567 89.3274 105.864C74.1932 109.5 56.6912 108.626 44.3666 99.203C32.2568 89.9446 33.658 71.7486 26.839 58.0896C18.7613 41.9092 -0.334666 30.111 0.835928 12.0076C2.03712 -6.56905 14.7983 -27.2082 32.6835 -32.2966C51.0721 -37.5283 65.4646 -11.7158 84.5511 -11.8098C102.155 -11.8965 115.051 -38.275 131.75 -32.7844Z" fill="#8FE4E7"/>
</svg>
